<svg width="24.000000" height="24.000000" viewBox="0 0 24 24" fill="none" xmlns="http://www.w3.org/2000/svg" xmlns:xlink="http://www.w3.org/1999/xlink">
	<desc>
			Created with Pixso.
	</desc>
	<defs>
		<clipPath id="clip7_48">
			<rect id="flame" rx="0.000000" width="23.000000" height="23.000000" transform="translate(0.500000 0.500000)" fill="white" fill-opacity="0"/>
		</clipPath>
	</defs>
	<rect id="flame" rx="0.000000" width="23.000000" height="23.000000" transform="translate(0.500000 0.500000)" fill="#FFFFFF" fill-opacity="0"/>
	<g clip-path="url(#clip7_48)">
		<path id="Vector" d="M17.73 20.21C16.1 22.03 13.84 23.07 11.53 23.07C10.91 23.07 10.3 22.99 9.7 22.85C8.06 22.44 6.66 21.55 5.53 20.18C5.49 20.14 2.36 16.12 5.26 11.33C5.42 11.08 5.59 10.85 5.73 10.67C7 9.08 8.23 6.88 7.56 5.9C7.51 5.83 7.48 5.74 7.48 5.64C7.48 5.55 7.51 5.46 7.57 5.38C7.67 5.22 7.87 5.15 8.05 5.2C8.23 5.24 9.63 5.68 9.93 8.44C10.23 7.79 10.5 6.93 10.44 5.94C10.34 4.45 9.52 3.04 8 1.73C7.92 1.66 7.87 1.56 7.85 1.46C7.83 1.36 7.85 1.25 7.9 1.16C8 0.97 8.23 0.87 8.43 0.94C8.54 0.96 18.4 3.96 16.91 14.18C17.48 13.56 18.13 12.36 17.97 10.16C17.95 9.95 18.09 9.75 18.29 9.69C18.5 9.62 18.72 9.71 18.83 9.9C18.86 9.95 21.97 15.47 17.73 20.21Z" fill="#E67E22" fill-opacity="1.000000" fill-rule="nonzero"/>
	</g>
</svg>
